<?xml version="1.0" encoding="UTF-8"?>
<svg version="1.1" xmlns="http://www.w3.org/2000/svg" width="500" height="500">
<path d="M0 0 C3.23091982 2.14704287 4.92825694 4.14954309 6.75 7.5625 C7.17796875 8.34753906 7.6059375 9.13257813 8.046875 9.94140625 C9 12 9 12 9 14 C9.66 14 10.32 14 11 14 C12.41015625 15.50390625 12.41015625 15.50390625 14.0625 17.5625 C17.41113866 21.53989149 21.06430844 24.53030489 25.27734375 27.5546875 C25.84582031 28.03164062 26.41429687 28.50859375 27 29 C27 29.66 27 30.32 27 31 C27.71671875 31.24363281 28.4334375 31.48726562 29.171875 31.73828125 C32.3683875 33.16434967 34.58472175 34.92357213 37.25 37.1875 C41.54391093 40.79974528 45.90956261 44.24999122 50.41796875 47.58984375 C50.94003906 48.05519531 51.46210938 48.52054688 52 49 C52 49.66 52 50.32 52 51 C52.66 51 53.32 51 54 51 C54.04125 49.7625 54.0825 48.525 54.125 47.25 C54.91941982 39.78008231 58.89164689 33.16252967 63 27 C63.66 27 64.32 27 65 27 C65.226875 26.4225 65.45375 25.845 65.6875 25.25 C67.38730889 22.33604191 69.25255451 20.97099351 72 19 C72.55558594 18.59652344 73.11117187 18.19304687 73.68359375 17.77734375 C79.80772383 13.61395386 87.49847678 10 95 10 C95 10.99 95 11.98 95 13 C94.34 13 93.68 13 93 13 C93 13.66 93 14.32 93 15 C92.13375 15.8353125 92.13375 15.8353125 91.25 16.6875 C79.79427977 28.46143469 81.80135627 46.31356764 81.52319336 61.52441406 C81.0703155 85.29101027 76.22199496 105.813907 60 124 C53.48106231 130.18120191 43.33149265 139 34 139 C35.51682166 135.44723055 37.63719995 133.1357298 40.3125 130.375 C44.67328214 125.62861815 47.52218177 120.92089096 50 115 C50.35707031 114.22527344 50.71414063 113.45054687 51.08203125 112.65234375 C55.0038926 101.32066776 53.29036414 87.78815109 48.2109375 77.1328125 C46.51806218 74.15116758 44.52166839 71.4866213 42.3671875 68.82421875 C40.97273712 66.96362353 39.97605335 65.10548651 39 63 C38.34 63 37.68 63 37 63 C37 62.34 37 61.68 37 61 C36.34 61 35.68 61 35 61 C35 60.34 35 59.68 35 59 C34.41734375 58.7421875 33.8346875 58.484375 33.234375 58.21875 C30.8197097 56.90165983 29.18259823 55.44911616 27.25 53.5 C26.32960937 52.58734375 26.32960937 52.58734375 25.390625 51.65625 C24 50 24 50 24 48 C23.34 48 22.68 48 22 48 C22 47.34 22 46.68 22 46 C21.34 46 20.68 46 20 46 C16 41.52941176 16 41.52941176 16 39 C15.34 39 14.68 39 14 39 C12 36 12 36 12 33 C11.34 33 10.68 33 10 33 C4.957017 23.03170361 -0.56368677 11.4471774 0 0 Z " fill="#83B647" transform="translate(213,178)"/>
<path d="M0 0 C4 1 4 1 6 2 C6 2.66 6 3.32 6 4 C6.5775 4.20625 7.155 4.4125 7.75 4.625 C14.11611964 8.51540645 18.71903583 19.15710748 21 26 C21.66 26 22.32 26 23 26 C23 26.66 23 27.32 23 28 C23.66 28 24.32 28 25 28 C26.44207941 30.88415883 26.09394887 33.41721528 26.0625 36.625 C26.05347656 37.81351563 26.04445312 39.00203125 26.03515625 40.2265625 C26.02355469 41.14179688 26.01195312 42.05703125 26 43 C27.30324219 42.89558594 27.30324219 42.89558594 28.6328125 42.7890625 C37.87867936 42.35469292 37.87867936 42.35469292 41.19921875 44.265625 C42.8125 45.875 42.8125 45.875 45 49 C45 49.66 45 50.32 45 51 C45.66 51 46.32 51 47 51 C47 51.66 47 52.32 47 53 C47.66 53 48.32 53 49 53 C52.5439162 57.87288478 55.46197215 63.15549417 57 69 C56 70 56 70 53.13256836 70.11352539 C51.88096924 70.10828857 50.62937012 70.10305176 49.33984375 70.09765625 C48.34314415 70.09553383 48.34314415 70.09553383 47.3263092 70.09336853 C45.19666101 70.08775518 43.06711661 70.07520054 40.9375 70.0625 C39.49674631 70.05748671 38.05599097 70.05292351 36.61523438 70.04882812 C33.07678898 70.03778145 29.53840461 70.02050792 26 70 C26.03665771 70.81678223 26.07331543 71.63356445 26.11108398 72.47509766 C26.25697955 76.19134518 26.34775494 79.90699027 26.4375 83.625 C26.49615234 84.91019531 26.55480469 86.19539063 26.61523438 87.51953125 C26.78434522 96.84478631 26.78434522 96.84478631 24.48095703 100.23730469 C20.21502058 104 20.21502058 104 17 104 C16.8040625 104.54140625 16.608125 105.0828125 16.40625 105.640625 C14.37088157 109.05552093 11.54157491 111.2362472 8.5 113.75 C7.90574219 114.25660156 7.31148437 114.76320313 6.69921875 115.28515625 C2.26343497 119 2.26343497 119 0 119 C0 79.73 0 40.46 0 0 Z " fill="#30508B" transform="translate(205,195)"/>
<path d="M0 0 C3.23091982 2.14704287 4.92825694 4.14954309 6.75 7.5625 C7.17796875 8.34753906 7.6059375 9.13257813 8.046875 9.94140625 C9 12 9 12 9 14 C9.66 14 10.32 14 11 14 C12.41015625 15.50390625 12.41015625 15.50390625 14.0625 17.5625 C17.41113866 21.53989149 21.06430844 24.53030489 25.27734375 27.5546875 C25.84582031 28.03164062 26.41429687 28.50859375 27 29 C27 29.66 27 30.32 27 31 C27.71027344 31.23976562 28.42054688 31.47953125 29.15234375 31.7265625 C32.44522972 33.19910136 34.79919918 35.06136009 37.5625 37.375 C38.49191406 38.14585937 39.42132813 38.91671875 40.37890625 39.7109375 C41.24386719 40.46632812 42.10882813 41.22171875 43 42 C44.15822266 43.00546875 44.15822266 43.00546875 45.33984375 44.03125 C47 46 47 46 47.3125 48.0703125 C46.46805536 53.622536 46.46805536 53.622536 44.0625 55.5625 C42 56 42 56 40 55 C39.01 55.495 39.01 55.495 38 56 C38 58.62113708 38.31292445 60.50935112 39 63 C38.34 63 37.68 63 37 63 C37 62.34 37 61.68 37 61 C36.34 61 35.68 61 35 61 C35 60.34 35 59.68 35 59 C34.41734375 58.7421875 33.8346875 58.484375 33.234375 58.21875 C30.8197097 56.90165983 29.18259823 55.44911616 27.25 53.5 C26.32960937 52.58734375 26.32960937 52.58734375 25.390625 51.65625 C24 50 24 50 24 48 C23.34 48 22.68 48 22 48 C22 47.34 22 46.68 22 46 C21.34 46 20.68 46 20 46 C16 41.52941176 16 41.52941176 16 39 C15.34 39 14.68 39 14 39 C12 36 12 36 12 33 C11.34 33 10.68 33 10 33 C4.957017 23.03170361 -0.56368677 11.4471774 0 0 Z " fill="#85B649" transform="translate(213,178)"/>
<path d="M0 0 C3.1875 1.875 3.1875 1.875 5 4 C5 4.66 5 5.32 5 6 C5.66 6 6.32 6 7 6 C8.64392991 17.44086358 8.64392991 17.44086358 4.375 23.1875 C1.09227231 25.69273955 -1.87100618 26.76063804 -6 27 C-10.24439264 26.26184476 -13.20311414 24.694721 -16.4375 21.875 C-18.84011739 17.45418399 -19.57349408 12.67477639 -18.51171875 7.72265625 C-18.34285156 7.15417969 -18.17398438 6.58570313 -18 6 C-17.34 6 -16.68 6 -16 6 C-15.731875 5.38125 -15.46375 4.7625 -15.1875 4.125 C-11.99566348 -1.58670745 -5.70775726 -0.69992936 0 0 Z " fill="#87B84B" transform="translate(262,186)"/>
<path d="M0 0 C0.66 0 1.32 0 2 0 C2 13.2 2 26.4 2 40 C1.01 40 0.02 40 -1 40 C-1 39.34 -1 38.68 -1 38 C-1.66 38 -2.32 38 -3 38 C-3 37.34 -3 36.68 -3 36 C-3.56203125 35.75507813 -4.1240625 35.51015625 -4.703125 35.2578125 C-7.41865854 33.77073461 -9.46391438 31.95937218 -11.75 29.875 C-12.54921875 29.15054687 -13.3484375 28.42609375 -14.171875 27.6796875 C-14.77515625 27.12539063 -15.3784375 26.57109375 -16 26 C-14.7841894 22.59689376 -13.53802613 20.18920329 -11.0625 17.5625 C-8.38364229 14.56010875 -6.71767597 11.65939662 -5 8 C-4.16724567 6.5293345 -3.31188836 5.07129935 -2.4375 3.625 C-2.02371094 2.93664062 -1.60992187 2.24828125 -1.18359375 1.5390625 C-0.79300781 1.03117187 -0.40242188 0.52328125 0 0 Z " fill="#84B351" transform="translate(292,278)"/>
<path d="M0 0 C1.65 0 3.3 0 5 0 C5.66 1.65 6.32 3.3 7 5 C7.66 5 8.32 5 9 5 C9.639375 4.34 10.27875 3.68 10.9375 3 C13 1 13 1 16 1 C10.58958641 13.29639452 -0.81312574 21.1446654 -12.85546875 26.2578125 C-15 27 -15 27 -17 27 C-15.48317834 23.44723055 -13.36280005 21.1357298 -10.6875 18.375 C-5.60166728 12.84692096 -2.36813406 7.10440217 0 0 Z " fill="#72A746" transform="translate(264,290)"/>
<path d="M0 0 C3.23091982 2.14704287 4.92825694 4.14954309 6.75 7.5625 C7.17796875 8.34753906 7.6059375 9.13257813 8.046875 9.94140625 C9 12 9 12 9 14 C9.66 14 10.32 14 11 14 C10.690625 14.556875 10.38125 15.11375 10.0625 15.6875 C7.8917501 20.41207332 7.94035118 23.93723343 9 29 C6.11323055 25.64054315 4.72776325 22.02920822 3.375 17.875 C3.15626221 17.2142749 2.93752441 16.5535498 2.7121582 15.87280273 C1.04513815 10.62165766 0.14293631 5.52253932 0 0 Z " fill="#9CBE6D" transform="translate(213,178)"/>
<path d="M0 0 C0.66 0.33 1.32 0.66 2 1 C1.38125 1.886875 0.7625 2.77375 0.125 3.6875 C-2.07478556 6.75963533 -2.07478556 6.75963533 -2.75 9.6875 C-4.28400486 12.52540898 -5.01588914 12.51435779 -8 13.4375 C-10.14312049 14.0471697 -10.14312049 14.0471697 -12 15 C-13.59995382 18.04021368 -13.59995382 18.04021368 -14 21 C-14.99 21 -15.98 21 -17 21 C-17.33 20.34 -17.66 19.68 -18 19 C-17.07421875 17.0546875 -17.07421875 17.0546875 -15.6875 14.875 C-15.23761719 14.15054688 -14.78773438 13.42609375 -14.32421875 12.6796875 C-13.88722656 12.12539062 -13.45023437 11.57109375 -13 11 C-12.34 11 -11.68 11 -11 11 C-10.773125 10.4225 -10.54625 9.845 -10.3125 9.25 C-8.6493356 6.39886103 -6.64496137 4.95223339 -4 3 C-2.8553125 2.13375 -2.8553125 2.13375 -1.6875 1.25 C-1.130625 0.8375 -0.57375 0.425 0 0 Z " fill="#8EBC4B" transform="translate(289,194)"/>
<path d="M0 0 C0.66 0.33 1.32 0.66 2 1 C1.690625 2.093125 1.38125 3.18625 1.0625 4.3125 C-1.70159432 15.50835551 -1.28002231 27.35715479 -1.55224609 38.82617188 C-1.74109925 46.59514037 -1.96006907 54.28717891 -3 62 C-3.33 62 -3.66 62 -4 62 C-4.1952646 43.31968623 -3.59509959 24.66808427 -3 6 C-2.34 6 -1.68 6 -1 6 C-0.67 4.02 -0.34 2.04 0 0 Z " fill="#96B967" transform="translate(296,201)"/>
<path d="M0 0 C4 4.75 4 4.75 4 7 C5.32 7.33 6.64 7.66 8 8 C8 8.99 8 9.98 8 11 C7.01 11 6.02 11 5 11 C5 11.66 5 12.32 5 13 C4.34 13 3.68 13 3 13 C3 13.99 3 14.98 3 16 C2.34 16 1.68 16 1 16 C1 15.34 1 14.68 1 14 C0.34 14 -0.32 14 -1 14 C-3.52112676 6.43661972 -3.52112676 6.43661972 -2 2 C-1.34 1.34 -0.68 0.68 0 0 Z " fill="#80B143" transform="translate(223,194)"/>
<path d="M0 0 C0 0.99 0 1.98 0 3 C-0.66 3 -1.32 3 -2 3 C-2 3.66 -2 4.32 -2 5 C-3.30973998 6.3565164 -4.64802142 7.68557638 -6 9 C-7.35156675 10.65191491 -8.68962066 12.31522656 -10 14 C-10 12.68 -10 11.36 -10 10 C-10.66 10 -11.32 10 -12 10 C-13.38232443 8.37373596 -14.71937515 6.7074998 -16 5 C-14.3962669 4.35309078 -12.79199694 3.70751236 -11.1875 3.0625 C-9.84751953 2.52302734 -9.84751953 2.52302734 -8.48046875 1.97265625 C-5.46847959 0.79157704 -3.26236464 0 0 0 Z " fill="#A2C673" transform="translate(308,188)"/>
<path d="M0 0 C0.66 0 1.32 0 2 0 C2 13.2 2 26.4 2 40 C1.01 39.67 0.02 39.34 -1 39 C-0.34 39 0.32 39 1 39 C0.67 28.44 0.34 17.88 0 7 C-1.98 9.64 -3.96 12.28 -6 15 C-6.66 14.67 -7.32 14.34 -8 14 C-6.30796541 10.43782191 -4.46897804 7.00278301 -2.4375 3.625 C-2.02371094 2.93664062 -1.60992187 2.24828125 -1.18359375 1.5390625 C-0.79300781 1.03117187 -0.40242188 0.52328125 0 0 Z " fill="#AAC989" transform="translate(292,278)"/>
<path d="M0 0 C2.04119788 1.61594832 4.04072937 3.2856382 6 5 C6 5.66 6 6.32 6 7 C6.66 7 7.32 7 8 7 C8 7.66 8 8.32 8 9 C8.66 9 9.32 9 10 9 C10.99 10.98 11.98 12.96 13 15 C9.625 15.625 9.625 15.625 6 16 C5.34 15.34 4.68 14.68 4 14 C4.66 13.34 5.32 12.68 6 12 C4.71937515 10.2925002 3.38232443 8.62626404 2 7 C1.34 7 0.68 7 0 7 C-0.12375 6.360625 -0.2475 5.72125 -0.375 5.0625 C-0.684375 4.0415625 -0.684375 4.0415625 -1 3 C-1.66 2.67 -2.32 2.34 -3 2 C-2.01 2 -1.02 2 0 2 C0 1.34 0 0.68 0 0 Z " fill="#4B699A" transform="translate(244,239)"/>
<path d="M0 0 C4 1 4 1 6 2 C6 2.66 6 3.32 6 4 C6.5775 4.20625 7.155 4.4125 7.75 4.625 C10.81410544 6.49750888 12.15539968 8.96958519 14 12 C13.67 12.66 13.34 13.32 13 14 C12.608125 13.484375 12.21625 12.96875 11.8125 12.4375 C10.9153125 11.7259375 10.9153125 11.7259375 10 11 C7.34533951 11.23043864 7.34533951 11.23043864 5 12 C5.33 11.01 5.66 10.02 6 9 C5.34 8.67 4.68 8.34 4 8 C3.67 8.66 3.34 9.32 3 10 C2.01 6.7 1.02 3.4 0 0 Z " fill="#4F6691" transform="translate(205,195)"/>
<path d="M0 0 C4.66666667 4 9.33333333 8 14 12 C11.35261084 13.4606285 10.10551666 14 7 14 C6.01 14.33 5.02 14.66 4 15 C3.67 16.98 3.34 18.96 3 21 C2.34 20.67 1.68 20.34 1 20 C1 19.01 1 18.02 1 17 C0.34 17 -0.32 17 -1 17 C-1.33 16.01 -1.66 15.02 -2 14 C-1.34 14 -0.68 14 0 14 C0 14.66 0 15.32 0 16 C0.66 16 1.32 16 2 16 C2 15.01 2 14.02 2 13 C2.66 13 3.32 13 4 13 C4 12.34 4 11.68 4 11 C4.99 11 5.98 11 7 11 C6.67 10.01 6.34 9.02 6 8 C5.01 7.67 4.02 7.34 3 7 C0 2.66666667 0 2.66666667 0 0 Z " fill="#9EC071" transform="translate(224,194)"/>
<path d="M0 0 C4.20335178 2.55203501 5.87918396 5.67981918 8 10 C7.67 10.66 7.34 11.32 7 12 C6.01 11.67 5.02 11.34 4 11 C4 12.98 4 14.96 4 17 C0.68341387 12.0251208 -0.38479461 5.96431647 0 0 Z " fill="#A9C481" transform="translate(213,178)"/>
<path d="M0 0 C0.99 0.33 1.98 0.66 3 1 C3.02703381 2.93742341 3.04641125 4.87495479 3.0625 6.8125 C3.07410156 7.89144531 3.08570313 8.97039062 3.09765625 10.08203125 C3 13 3 13 2 16 C2.66 16.33 3.32 16.66 4 17 C3.40138258 19.35171131 2.73075648 21.6859378 2 24 C1.34 24.33 0.68 24.66 0 25 C0 16.75 0 8.5 0 0 Z " fill="#77A545" transform="translate(267,264)"/>
<path d="M0 0 C0.66 0.33 1.32 0.66 2 1 C2 1.66 2 2.32 2 3 C2.66 3 3.32 3 4 3 C5.57411179 13.95496719 5.57411179 13.95496719 3 18 C0.875 19.8125 0.875 19.8125 -1 21 C-0.68817931 19.58318366 -0.37551263 18.16655349 -0.0625 16.75 C0.11152344 15.96109375 0.28554688 15.1721875 0.46484375 14.359375 C0.80470867 12.86099245 1.18702335 11.37113397 1.625 9.8984375 C2.20316035 6.97150073 1.01382637 4.74329488 0 2 C0 1.34 0 0.68 0 0 Z " fill="#A5C77D" transform="translate(265,189)"/>
<path d="M0 0 C0.66 0.33 1.32 0.66 2 1 C0.8125 3.4375 0.8125 3.4375 -1 6 C-3.6875 6.8125 -3.6875 6.8125 -6 7 C-6 7.99 -6 8.98 -6 10 C-9.465 11.485 -9.465 11.485 -13 13 C-13 12.34 -13 11.68 -13 11 C-12.34 11 -11.68 11 -11 11 C-10.773125 10.4225 -10.54625 9.845 -10.3125 9.25 C-8.6493356 6.39886103 -6.64496137 4.95223339 -4 3 C-2.8553125 2.13375 -2.8553125 2.13375 -1.6875 1.25 C-1.130625 0.8375 -0.57375 0.425 0 0 Z " fill="#B5CF86" transform="translate(289,194)"/>
<path d="M0 0 C0.33 0.99 0.66 1.98 1 3 C2.65 3 4.3 3 6 3 C2.2440786 6.42931954 -2.23466745 7.56429083 -7 9 C-5.27845212 5.23511958 -3.00765886 2.84936103 0 0 Z " fill="#97BA7E" transform="translate(254,308)"/>
<path d="M0 0 C0.66 0 1.32 0 2 0 C2 0.66 2 1.32 2 2 C2.680625 2.20625 3.36125 2.4125 4.0625 2.625 C7.97009851 4.45408866 10.83857939 7.10279034 14 10 C11 11 11 11 7.8125 9.5625 C6.884375 9.046875 5.95625 8.53125 5 8 C5.33 7.01 5.66 6.02 6 5 C5.01 5.33 4.02 5.66 3 6 C0 2.25 0 2.25 0 0 Z " fill="#A4C373" transform="translate(238,207)"/>
<path d="M0 0 C0.33 0 0.66 0 1 0 C1.3690205 10.55808656 1.3690205 10.55808656 -1 15 C-1.99 14.67 -2.98 14.34 -4 14 C-3.52188823 12.22888156 -3.0424722 10.45811517 -2.5625 8.6875 C-2.29566406 7.70136719 -2.02882813 6.71523437 -1.75390625 5.69921875 C-1.21920575 3.78482474 -0.62855462 1.88566385 0 0 Z " fill="#A4C477" transform="translate(270,215)"/>
<path d="M0 0 C1 3 1 3 0.00390625 5.48046875 C-0.47175781 6.37378906 -0.94742187 7.26710938 -1.4375 8.1875 C-1.91058594 9.08855469 -2.38367188 9.98960937 -2.87109375 10.91796875 C-3.24363281 11.60503906 -3.61617188 12.29210937 -4 13 C-4.99 12.67 -5.98 12.34 -7 12 C-7 11.34 -7 10.68 -7 10 C-6.34 10 -5.68 10 -5 10 C-4.67 7.69 -4.34 5.38 -4 3 C-3.01 3 -2.02 3 -1 3 C-0.67 2.01 -0.34 1.02 0 0 Z " fill="#94B86B" transform="translate(288,274)"/>
<path d="M0 0 C2.375 0.25 2.375 0.25 5 1 C6.3125 3.0625 6.3125 3.0625 7 5 C3.625 5.625 3.625 5.625 0 6 C-0.66 5.34 -1.32 4.68 -2 4 C-1.34 3.34 -0.68 2.68 0 2 C0 1.34 0 0.68 0 0 Z " fill="#3E6096" transform="translate(250,249)"/>
<path d="M0 0 C3.375 0.625 3.375 0.625 7 2 C8.4375 5.125 8.4375 5.125 9 8 C8.1646875 7.2265625 8.1646875 7.2265625 7.3125 6.4375 C5.05914993 4.70523302 5.05914993 4.70523302 2.25 5.3125 C1.5075 5.539375 0.765 5.76625 0 6 C0 4 0 2 0 0 Z " fill="#546E9E" transform="translate(210,201)"/>
<path d="M0 0 C0.66 0.33 1.32 0.66 2 1 C1.690625 2.093125 1.38125 3.18625 1.0625 4.3125 C-0.2463099 9.48276323 -0.62926347 14.69261392 -1 20 C-1.33 20 -1.66 20 -2 20 C-2.3690205 6.3667426 -2.3690205 6.3667426 0 0 Z " fill="#BBD498" transform="translate(296,201)"/>
<path d="M0 0 C0.66 0.99 1.32 1.98 2 3 C1.030625 3.2475 0.06125 3.495 -0.9375 3.75 C-2.4534375 4.36875 -2.4534375 4.36875 -4 5 C-4.96877057 7.03243548 -4.96877057 7.03243548 -5 9 C-5 8.34 -5 7.68 -5 7 C-5.66 7 -6.32 7 -7 7 C-7.33 6.01 -7.66 5.02 -8 4 C-7.01 4 -6.02 4 -5 4 C-4.67 3.34 -4.34 2.68 -4 2 C-1.9375 0.875 -1.9375 0.875 0 0 Z " fill="#6FA73A" transform="translate(278,288)"/>
<path d="M0 0 C1.76462683 3.08809695 2 4.23312136 2 8 C1.67 8.99 1.34 9.98 1 11 C-1.04480351 8.95519649 -2.13609919 7.74877531 -3 5 C-1.625 2.25 -1.625 2.25 0 0 Z " fill="#7AAD40" transform="translate(282,296)"/>
<path d="M0 0 C1.1875 1.6875 1.1875 1.6875 2 4 C0.625 6.75 0.625 6.75 -1 9 C-1.99 8.67 -2.98 8.34 -4 8 C-2.87548273 5.0280615 -1.77706209 2.66559313 0 0 Z " fill="#97BF63" transform="translate(275,207)"/>
<path d="M0 0 C0.66 0.33 1.32 0.66 2 1 C1.34 2.65 0.68 4.3 0 6 C-1.65 6 -3.3 6 -5 6 C-5 5.01 -5 4.02 -5 3 C-4.34 3 -3.68 3 -3 3 C-3 2.34 -3 1.68 -3 1 C-2.01 0.67 -1.02 0.34 0 0 Z " fill="#649D3D" transform="translate(260,305)"/>
<path d="M0 0 C0.99 0.33 1.98 0.66 3 1 C0.6875 3.5 0.6875 3.5 -2 6 C-2.99 6 -3.98 6 -5 6 C-5.33 5.01 -5.66 4.02 -6 3 C-4 2 -2 1 0 0 Z " fill="#86B066" transform="translate(271,299)"/>
<path d="M0 0 C-1.44253657 3.36591866 -3.33264727 5.51047079 -6 8 C-6.1875 5.125 -6.1875 5.125 -6 2 C-3 0 -3 0 0 0 Z " fill="#86AE66" transform="translate(280,291)"/>
<path d="M0 0 C0.66 0 1.32 0 2 0 C2 0.66 2 1.32 2 2 C2.66 2 3.32 2 4 2 C4.33 4.31 4.66 6.62 5 9 C2.5 7.3125 2.5 7.3125 0 5 C-0.3125 2.25 -0.3125 2.25 0 0 Z " fill="#516E91" transform="translate(226,221)"/>
<path d="M0 0 C-3.8503105 2.56687367 -5.58569763 1.83288724 -10 1 C-10 1.66 -10 2.32 -10 3 C-10.66 3 -11.32 3 -12 3 C-12 3.66 -12 4.32 -12 5 C-13.32 4.67 -14.64 4.34 -16 4 C-11.34158975 -1.14031476 -6.42886252 -0.40532233 0 0 Z " fill="#A5C47F" transform="translate(262,186)"/>
<path d="M0 0 C0.33 0 0.66 0 1 0 C1.4375 2.1875 1.4375 2.1875 1 5 C-1.13995327 6.98441782 -3.50175965 8.5023304 -6 10 C-6 8.68 -6 7.36 -6 6 C-5.01 6 -4.02 6 -3 6 C-2.690625 5.195625 -2.38125 4.39125 -2.0625 3.5625 C-1 1 -1 1 0 0 Z " fill="#57668F" transform="translate(230,288)"/>
<path d="M0 0 C4.62 0 9.24 0 14 0 C10.9808607 2.01275953 9.54486124 2.67024547 6 3 C2.6875 2.0625 2.6875 2.0625 0 1 C0 0.67 0 0.34 0 0 Z " fill="#A6C27E" transform="translate(250,210)"/>
<path d="M0 0 C0 0.99 0 1.98 0 3 C-0.66 3 -1.32 3 -2 3 C-2 3.66 -2 4.32 -2 5 C-4 6.625 -4 6.625 -6 8 C-5.814375 7.21625 -5.62875 6.4325 -5.4375 5.625 C-4.74037734 3.02910225 -4.74037734 3.02910225 -6 1 C-3 0 -3 0 0 0 Z " fill="#B4CB95" transform="translate(308,188)"/>
<path d="M0 0 C-0.66 0 -1.32 0 -2 0 C-2 1.65 -2 3.3 -2 5 C-2.99 5.33 -3.98 5.66 -5 6 C-5.66 4.35 -6.32 2.7 -7 1 C-3.375 -1.125 -3.375 -1.125 0 0 Z " fill="#8EBA53" transform="translate(304,192)"/>
<path d="M0 0 C1.485 0.99 1.485 0.99 3 2 C3.375 4.5 3.375 4.5 3 7 C2.01 7.66 1.02 8.32 0 9 C0 6.03 0 3.06 0 0 Z " fill="#2C407F" transform="translate(207,304)"/>
<path d="M0 0 C0.66 0 1.32 0 2 0 C1.25 7.625 1.25 7.625 -1 11 C-1.0270043 9.54176788 -1.04639787 8.08339325 -1.0625 6.625 C-1.07410156 5.81289063 -1.08570313 5.00078125 -1.09765625 4.1640625 C-1 2 -1 2 0 0 Z " fill="#A5C57F" transform="translate(290,263)"/>
<path d="M0 0 C3.36591866 1.44253657 5.51047079 3.33264727 8 6 C7.01 6.495 7.01 6.495 6 7 C5.67 6.34 5.34 5.68 5 5 C2.47266765 4.34444881 2.47266765 4.34444881 0 4 C0 2.68 0 1.36 0 0 Z " fill="#ABCA79" transform="translate(252,218)"/>
<path d="M0 0 C0.99 0.33 1.98 0.66 3 1 C0.525 4.465 0.525 4.465 -2 8 C-2.66 7.67 -3.32 7.34 -4 7 C-1.125 1.125 -1.125 1.125 0 0 Z " fill="#ABCC87" transform="translate(288,285)"/>
<path d="M0 0 C0.99 0 1.98 0 3 0 C3.33 1.98 3.66 3.96 4 6 C2.68 6 1.36 6 0 6 C0 4.02 0 2.04 0 0 Z " fill="#83B645" transform="translate(217,189)"/>
<path d="M0 0 C0.33 0.99 0.66 1.98 1 3 C0.01 4.485 0.01 4.485 -1 6 C-3.625 6.1875 -3.625 6.1875 -6 6 C-5.34 4.68 -4.68 3.36 -4 2 C-3.01 2 -2.02 2 -1 2 C-0.67 1.34 -0.34 0.68 0 0 Z " fill="#7CAD48" transform="translate(288,271)"/>
<path d="M0 0 C3.25666272 0.56149357 4.95623323 1.37229986 7 4 C7.6875 6.1875 7.6875 6.1875 8 8 C7.34 8 6.68 8 6 8 C2 3.52941176 2 3.52941176 2 1 C1.34 0.67 0.68 0.34 0 0 Z " fill="#9DBF7D" transform="translate(227,216)"/>
<path d="M0 0 C0.99 0.33 1.98 0.66 3 1 C4.1875 3.5625 4.1875 3.5625 5 6 C4.01 6.33 3.02 6.66 2 7 C2 6.01 2 5.02 2 4 C1.01 3.67 0.02 3.34 -1 3 C-0.67 2.01 -0.34 1.02 0 0 Z " fill="#576E97" transform="translate(218,210)"/>
<path d="M0 0 C0.66 0.33 1.32 0.66 2 1 C-0.46153846 5.8 -0.46153846 5.8 -3.1875 6.8125 C-3.785625 6.874375 -4.38375 6.93625 -5 7 C-4.60196439 4.11424181 -4.20990931 3.17810487 -1.9375 1.25 C-1.298125 0.8375 -0.65875 0.425 0 0 Z " fill="#A2C272" transform="translate(289,194)"/>
<path d="M0 0 C0.66 0.99 1.32 1.98 2 3 C1.34 3 0.68 3 0 3 C0 4.32 0 5.64 0 7 C-0.99 7 -1.98 7 -3 7 C-3 7.66 -3 8.32 -3 9 C-3.66 8.67 -4.32 8.34 -5 8 C-3.35 5.36 -1.7 2.72 0 0 Z " fill="#8BB974" transform="translate(260,299)"/>
<path d="M0 0 C1.65 0 3.3 0 5 0 C5.33 0.99 5.66 1.98 6 3 C4.35 3.33 2.7 3.66 1 4 C0.67 2.68 0.34 1.36 0 0 Z " fill="#3D5B8F" transform="translate(219,216)"/>
<path d="M0 0 C1.65 0 3.3 0 5 0 C3.35 1.65 1.7 3.3 0 5 C-0.33 4.01 -0.66 3.02 -1 2 C-0.67 1.34 -0.34 0.68 0 0 Z " fill="#8AB367" transform="translate(261,306)"/>
<path d="M0 0 C0.66 1.32 1.32 2.64 2 4 C1.07451225 6.69933926 0.57626463 7.71186768 -2 9 C-1.34 6.03 -0.68 3.06 0 0 Z " fill="#98C06A" transform="translate(266,201)"/>
</svg>
